# xmcd CD database file
#
# Track frame offsets:
#	150
#	15556
#	30398
#	57063
#	70345
#	88833
#	106329
#	124385
#	139697
#	156438
#	168958
#	179684
#	196529
#
# Disc length: 2866 seconds
#
# Revision: 0
# Processed by: cddbd v1.5.1PL0 Copyright (c) Steve Scherf et al.
# Submitted via: CDex 1.51
#
DISCID=ab0b300d
DTITLE=Jawadde - 'T Es Were Van Dadde
DYEAR=1900
DGENRE=
TTITLE0=Vrijen
TTITLE1=Oh Marietje
TTITLE2='K Heb Prijs - Mina, Schuune Ballerina
TTITLE3='T Es Kerstdag In De Stad
TTITLE4=Het Knopje
TTITLE5=Kriebels
TTITLE6='T Zal Veranderen
TTITLE7='K Voel Heur Komen
TTITLE8=Nen Schuunen Slow
TTITLE9=De Gantoise
TTITLE10=Voetbal, Voetbal
TTITLE11=Z' Hé Maa Nie
TTITLE12=Braakgesprek
EXTD=
EXTT0=
EXTT1=
EXTT2=
EXTT3=
EXTT4=
EXTT5=
EXTT6=
EXTT7=
EXTT8=
EXTT9=
EXTT10=
EXTT11=
EXTT12=
PLAYORDER=
